<svg xmlns="http://www.w3.org/2000/svg" xmlns:xlink="http://www.w3.org/1999/xlink" width="500" zoomAndPan="magnify" viewBox="0 0 375 374.999991" height="500" preserveAspectRatio="xMidYMid meet" version="1.0"><path fill="#ea2227" d="M 319.558594 204.808594 C 319.558594 208.730469 319.558594 213.09375 319.121094 217.015625 C 317.816406 234.457031 313.457031 250.585938 306.484375 265.847656 C 303.871094 271.949219 300.382812 277.617188 296.898438 283.285156 C 270.75 324.703125 224.992188 351.734375 172.699219 351.734375 C 150.476562 351.734375 129.121094 346.503906 109.949219 337.785156 C 60.269531 314.242188 25.839844 263.230469 25.839844 204.808594 C 25.839844 146.820312 58.960938 97.121094 107.332031 73.140625 C 103.410156 77.9375 99.925781 83.605469 96.875 88.835938 C 96.4375 89.273438 96.4375 89.707031 96.003906 90.144531 C 94.257812 91.886719 92.082031 93.195312 90.335938 94.9375 L 83.800781 101.480469 L 82.492188 102.789062 C 82.058594 103.222656 81.621094 103.660156 81.1875 104.53125 C 80.3125 105.402344 79.441406 106.273438 79.007812 107.148438 C 77.699219 108.890625 75.957031 110.636719 74.648438 112.816406 C 68.546875 120.664062 63.320312 129.820312 59.398438 138.972656 L 58.089844 141.589844 C 57.652344 142.898438 57.21875 143.769531 56.78125 145.078125 C 56.78125 145.515625 56.347656 146.386719 56.347656 146.820312 C 55.910156 148.566406 55.039062 150.308594 54.601562 152.054688 C 54.167969 153.363281 53.730469 154.234375 53.730469 155.542969 C 53.730469 155.976562 53.296875 156.847656 53.296875 157.285156 C 52.859375 158.59375 52.859375 159.464844 52.425781 160.773438 C 51.554688 164.261719 50.679688 168.183594 50.246094 172.109375 C 50.246094 172.980469 49.808594 173.851562 49.808594 175.160156 C 49.808594 176.03125 49.808594 176.46875 49.375 177.339844 C 49.375 178.648438 49.375 179.519531 48.9375 180.828125 L 48.9375 190.421875 C 48.9375 230.53125 67.242188 266.28125 96.003906 289.824219 C 118.226562 308.136719 146.554688 319.035156 177.058594 319.035156 C 204.949219 319.035156 231.09375 309.882812 252.011719 294.621094 C 267.265625 283.285156 280.339844 268.898438 289.488281 252.332031 C 290.796875 250.152344 291.667969 247.972656 292.976562 245.792969 C 300.382812 230.53125 304.742188 213.09375 305.179688 195.214844 L 305.179688 190.855469 C 305.179688 186.496094 305.179688 182.574219 304.742188 178.648438 C 305.179688 178.648438 305.179688 179.085938 305.179688 179.085938 C 307.355469 180.828125 309.101562 182.574219 310.84375 184.316406 C 312.585938 181.265625 314.328125 178.214844 316.507812 175.597656 C 317.816406 181.265625 318.6875 186.933594 319.121094 192.601562 C 319.558594 196.089844 319.558594 200.449219 319.558594 204.808594 " fill-opacity="1" fill-rule="nonzero"/><path fill="#f69220" d="M 305.179688 189.984375 L 305.179688 194.34375 C 305.179688 220.503906 294.28125 242.304688 292.976562 244.917969 C 292.105469 247.097656 290.796875 249.277344 289.488281 251.457031 C 280.339844 268.027344 267.265625 282.851562 252.011719 293.75 C 231.09375 309.007812 204.949219 318.164062 177.058594 318.164062 C 146.117188 318.164062 117.792969 307.265625 96.003906 288.953125 C 67.242188 265.410156 48.9375 229.660156 48.9375 189.546875 L 48.9375 179.957031 C 48.9375 178.648438 48.9375 177.777344 49.375 176.46875 C 49.375 175.597656 49.375 175.160156 49.808594 174.289062 C 49.808594 173.417969 50.246094 172.546875 50.246094 171.238281 C 50.679688 167.3125 51.550781 163.824219 52.425781 159.902344 C 52.859375 158.59375 52.859375 157.722656 53.296875 156.414062 C 53.296875 155.976562 53.730469 155.105469 53.730469 154.667969 C 54.167969 153.363281 54.167969 152.488281 54.601562 151.183594 C 55.039062 149.4375 55.910156 147.695312 56.347656 145.949219 C 56.347656 145.515625 56.78125 144.640625 56.78125 144.207031 C 57.21875 142.898438 57.652344 142.027344 58.089844 140.71875 L 59.398438 138.101562 C 63.320312 128.945312 68.546875 119.789062 74.648438 111.941406 C 75.957031 110.199219 77.699219 108.453125 79.007812 106.273438 C 79.878906 105.402344 80.3125 104.53125 81.1875 103.660156 C 81.621094 103.222656 82.058594 102.789062 82.492188 101.914062 L 83.800781 100.605469 L 90.335938 94.066406 C 92.082031 92.324219 94.257812 90.578125 96.003906 89.273438 C 95.566406 89.707031 95.566406 90.144531 95.132812 90.578125 C 94.695312 91.015625 94.695312 91.453125 94.257812 92.324219 C 86.851562 107.582031 82.058594 125.023438 80.3125 144.207031 C 79.878906 149.4375 79.441406 154.667969 79.441406 159.902344 C 79.441406 227.042969 118.664062 281.542969 167.46875 281.542969 L 172.265625 281.542969 C 179.238281 281.542969 186.210938 280.671875 192.746094 278.925781 C 225.867188 269.769531 249.832031 239.6875 249.832031 203.9375 L 249.832031 201.757812 C 249.398438 180.394531 240.246094 161.644531 225.867188 147.695312 C 235.886719 148.128906 245.476562 149.4375 255.0625 151.617188 C 272.929688 156.414062 289.488281 164.699219 303.433594 176.03125 C 303.871094 176.03125 303.871094 176.46875 304.304688 176.46875 C 304.742188 181.699219 305.175781 185.625 305.175781 189.984375 " fill-opacity="1" fill-rule="nonzero"/><path fill="#f69220" d="M 305.613281 189.984375 L 305.613281 194.34375 C 305.613281 221.8125 293.410156 245.355469 293.410156 245.355469 C 292.539062 247.535156 291.234375 249.714844 289.925781 251.894531 C 280.773438 268.460938 267.699219 283.285156 252.011719 294.621094 C 229.789062 310.316406 204.078125 319.035156 176.621094 319.035156 C 146.988281 319.035156 117.792969 308.574219 95.132812 289.824219 C 65.0625 265.410156 48.066406 228.789062 48.066406 189.984375 C 48.066406 151.183594 65.496094 114.558594 95.566406 90.144531 L 96.875 89.273438 C 96.4375 89.707031 96.4375 90.144531 96.003906 90.578125 C 95.566406 91.015625 95.566406 91.453125 95.132812 91.886719 C 65.933594 116.304688 48.9375 152.054688 48.9375 189.984375 C 48.9375 228.351562 65.933594 264.539062 95.566406 288.953125 C 118.226562 307.703125 146.988281 317.730469 176.621094 317.730469 C 203.640625 317.730469 229.351562 309.445312 251.140625 293.75 C 266.394531 282.851562 279.464844 268.027344 288.617188 251.457031 C 289.925781 249.277344 290.796875 247.097656 292.105469 244.917969 C 292.105469 244.484375 304.304688 221.375 304.304688 194.34375 L 304.304688 189.984375 C 304.304688 186.0625 304.304688 181.699219 303.871094 177.777344 L 303.871094 177.339844 C 304.304688 177.339844 304.304688 177.777344 304.742188 177.777344 L 305.175781 178.214844 C 305.613281 182.136719 305.613281 186.0625 305.613281 189.984375 " fill-opacity="1" fill-rule="nonzero"/><path fill="#ea2227" d="M 270.75 110.199219 C 270.75 110.199219 166.164062 90.578125 116.921875 181.699219 C 116.921875 181.699219 125.636719 118.484375 200.589844 90.144531 L 185.773438 62.242188 C 185.773438 62.242188 215.84375 35.210938 268.570312 42.183594 Z M 270.75 110.199219 " fill-opacity="1" fill-rule="nonzero"/><path fill="#f69220" d="M 140.886719 158.59375 C 140.886719 158.59375 182.722656 104.09375 278.160156 118.046875 L 276.851562 86.21875 C 276.851562 86.21875 316.945312 84.910156 349.191406 112.816406 L 309.535156 172.980469 C 309.535156 172.980469 282.082031 141.152344 225.429688 140.28125 C 202.332031 139.847656 174.007812 142.898438 140.886719 158.59375 " fill-opacity="1" fill-rule="nonzero"/><path fill="#f69220" d="M 99.488281 208.296875 C 99.488281 208.296875 51.554688 104.09375 162.675781 36.953125 L 189.261719 85.785156 C 189.261719 85.785156 171.394531 91.886719 152.21875 108.453125 C 131.300781 126.332031 108.640625 156.851562 99.488281 208.296875 " fill-opacity="1" fill-rule="nonzero"/><path fill="#ec1c24" d="M 162.675781 179.957031 C 162.675781 179.957031 153.527344 182.136719 153.960938 177.339844 C 153.960938 175.597656 154.832031 175.160156 155.703125 175.597656 C 155.703125 174.726562 153.960938 172.546875 157.882812 171.238281 C 159.191406 169.492188 160.5 167.75 160.933594 166.878906 C 161.371094 165.570312 162.242188 164.261719 165.726562 164.699219 C 169.214844 165.570312 173.136719 169.058594 173.570312 169.929688 C 175.75 169.929688 177.929688 170.363281 177.058594 170.800781 C 176.1875 171.238281 175.75 172.109375 176.1875 172.109375 C 176.1875 172.109375 177.492188 172.980469 174.007812 172.980469 C 174.007812 173.851562 174.878906 173.851562 175.316406 174.289062 C 175.75 174.726562 175.316406 175.160156 175.316406 175.160156 C 175.316406 175.160156 175.75 176.90625 174.007812 176.46875 C 172.265625 175.597656 172.265625 175.160156 171.394531 175.160156 C 170.957031 175.160156 169.648438 175.597656 169.648438 176.03125 C 169.648438 176.46875 171.828125 177.777344 169.214844 178.214844 C 168.777344 178.648438 170.085938 179.085938 169.214844 179.519531 C 168.34375 179.957031 164.421875 183.007812 162.675781 183.445312 C 160.933594 183.445312 160.5 183.007812 160.5 182.136719 C 160.5 181.265625 161.371094 180.828125 162.675781 180.828125 C 163.113281 180.394531 163.113281 179.957031 162.675781 179.957031 " fill-opacity="1" fill-rule="nonzero"/><path fill="#ec1c24" d="M 161.804688 189.546875 C 160.933594 189.546875 158.320312 187.804688 159.625 186.933594 C 160.933594 186.0625 167.035156 182.136719 168.34375 181.699219 C 169.648438 181.265625 171.394531 183.007812 169.648438 184.316406 C 168.34375 185.625 161.804688 189.546875 161.804688 189.546875 " fill-opacity="1" fill-rule="nonzero"/><path fill="#ec1c24" d="M 171.394531 185.1875 C 171.394531 184.316406 172.265625 180.394531 172.265625 179.519531 C 172.265625 178.648438 175.316406 178.648438 174.441406 181.699219 C 174.007812 185.1875 171.394531 186.0625 171.394531 185.1875 " fill-opacity="1" fill-rule="nonzero"/><path fill="#ec1c24" d="M 175.316406 178.214844 C 175.316406 178.214844 191.875 177.339844 193.183594 178.214844 C 194.488281 179.085938 200.15625 187.804688 198.847656 195.652344 C 197.539062 203.5 194.925781 205.679688 184.464844 206.550781 C 184.464844 203.9375 184.03125 197.394531 182.722656 195.652344 C 181.851562 193.910156 177.929688 189.984375 176.1875 189.984375 C 176.1875 191.730469 175.75 197.394531 175.75 197.394531 C 175.75 197.394531 170.519531 197.832031 169.648438 196.523438 L 169.648438 188.242188 C 169.648438 188.242188 174.441406 183.878906 174.878906 183.007812 C 175.75 183.445312 175.75 186.0625 181.851562 185.625 C 182.289062 184.753906 175.316406 185.625 175.316406 178.214844 " fill-opacity="1" fill-rule="nonzero"/><path fill="#ec1c24" d="M 169.214844 185.625 C 169.214844 185.625 163.984375 189.984375 162.675781 190.855469 C 162.242188 192.164062 161.371094 196.960938 168.34375 196.960938 C 168.777344 193.910156 169.214844 185.625 169.214844 185.625 " fill-opacity="1" fill-rule="nonzero"/><path fill="#ec1c24" d="M 156.574219 192.164062 C 154.832031 192.164062 153.527344 191.730469 153.960938 190.421875 C 153.960938 189.113281 156.574219 187.804688 157.882812 188.242188 C 159.191406 188.675781 161.804688 189.113281 161.804688 194.78125 C 162.675781 196.089844 166.164062 198.269531 170.085938 198.703125 C 174.007812 199.140625 176.621094 198.269531 176.621094 199.578125 L 176.621094 207.425781 C 176.621094 207.425781 171.828125 207.425781 159.625 198.703125 C 158.753906 197.394531 157.882812 196.523438 157.882812 194.34375 C 157.882812 193.472656 157.011719 192.164062 156.578125 192.164062 " fill-opacity="1" fill-rule="nonzero"/><path fill="#ec1c24" d="M 152.652344 193.035156 C 150.476562 193.035156 144.808594 197.832031 149.167969 200.011719 C 150.476562 199.140625 151.347656 197.832031 151.347656 197.832031 C 151.347656 197.832031 150.476562 200.449219 152.652344 201.320312 C 154.832031 202.191406 153.960938 200.011719 155.269531 200.011719 C 156.140625 201.320312 156.140625 201.757812 157.449219 201.757812 C 158.753906 201.757812 158.753906 198.269531 157.449219 196.523438 C 156.140625 194.34375 154.832031 193.472656 152.652344 193.035156 " fill-opacity="1" fill-rule="nonzero"/><path fill="#ec1c24" d="M 177.492188 193.910156 L 177.492188 209.167969 C 177.492188 209.167969 182.722656 207.425781 183.160156 206.117188 C 183.160156 203.5 182.289062 193.910156 177.492188 193.910156 " fill-opacity="1" fill-rule="nonzero"/><path fill="#ec1c24" d="M 165.292969 203.9375 C 165.292969 203.9375 171.394531 207.859375 174.878906 209.605469 C 174.441406 210.476562 171.828125 213.527344 170.957031 213.527344 C 170.085938 213.09375 165.726562 206.988281 165.292969 203.9375 " fill-opacity="1" fill-rule="nonzero"/><path fill="#ec1c24" d="M 136.09375 209.605469 L 143.9375 209.605469 L 143.9375 212.65625 L 136.53125 212.65625 Z M 136.09375 209.605469 " fill-opacity="1" fill-rule="nonzero"/><path fill="#ec1c24" d="M 225.429688 208.296875 L 191.003906 208.296875 L 196.667969 212.65625 L 225.429688 212.65625 Z M 225.429688 208.296875 " fill-opacity="1" fill-rule="nonzero"/><path fill="#ec1c24" d="M 184.464844 207.859375 C 184.902344 207.425781 188.824219 210.476562 187.953125 210.910156 C 186.644531 211.347656 176.1875 216.144531 175.316406 215.707031 C 174.441406 215.273438 174.441406 212.65625 175.75 212.21875 C 176.621094 211.785156 182.722656 210.039062 184.464844 207.859375 " fill-opacity="1" fill-rule="nonzero"/><path fill="#ec1c24" d="M 172.699219 215.273438 C 171.394531 214.398438 164.421875 221.375 167.472656 221.8125 C 170.519531 222.246094 177.929688 223.554688 179.671875 224.425781 C 181.414062 223.554688 183.160156 222.246094 182.722656 221.375 C 184.03125 221.375 185.773438 223.121094 187.515625 222.683594 C 189.261719 221.8125 197.539062 215.707031 197.976562 214.835938 C 196.230469 213.527344 192.746094 211.347656 191.003906 211.347656 C 189.695312 211.347656 178.367188 217.886719 172.699219 215.273438 " fill-opacity="1" fill-rule="nonzero"/><path fill="#ec1c24" d="M 169.214844 223.554688 C 170.085938 223.554688 178.800781 227.042969 180.980469 226.609375 C 183.160156 226.171875 183.59375 223.992188 184.902344 223.992188 C 186.210938 223.992188 186.644531 225.300781 188.824219 223.992188 C 191.003906 222.683594 194.488281 219.632812 195.359375 218.761719 C 195.359375 220.066406 195.359375 223.992188 187.515625 227.480469 C 179.671875 230.96875 160.933594 236.199219 160.5 238.816406 C 161.371094 239.25 163.546875 238.378906 165.292969 237.507812 C 166.164062 238.378906 167.90625 240.558594 167.472656 244.917969 C 167.035156 248.84375 163.984375 255.820312 163.984375 257.5625 L 163.984375 268.898438 C 163.984375 269.769531 165.726562 274.566406 163.113281 274.128906 C 160.933594 273.695312 159.191406 273.695312 158.320312 273.695312 C 157.449219 273.695312 155.703125 275.4375 153.960938 275.003906 C 152.21875 274.566406 149.605469 274.128906 149.605469 273.257812 C 149.605469 272.386719 151.347656 272.386719 153.089844 271.949219 C 154.832031 271.515625 155.703125 269.769531 158.753906 268.460938 C 158.753906 266.28125 157.882812 251.457031 157.882812 248.40625 C 157.882812 245.355469 157.011719 238.816406 158.320312 236.199219 C 158.753906 233.582031 165.726562 223.554688 169.214844 223.554688 " fill-opacity="1" fill-rule="nonzero"/><path fill="#ec1c24" d="M 180.542969 232.710938 C 180.542969 233.582031 185.773438 247.097656 188.386719 247.535156 C 190.566406 247.972656 212.792969 243.175781 217.148438 244.484375 C 218.457031 246.226562 221.070312 249.277344 221.070312 251.457031 C 221.070312 251.457031 221.507812 255.820312 221.070312 256.253906 C 221.945312 256.253906 223.6875 255.820312 224.121094 254.511719 C 224.558594 253.203125 224.121094 247.535156 224.558594 246.226562 C 224.558594 245.355469 227.171875 239.6875 223.6875 240.125 C 220.199219 240.125 209.742188 240.125 206.253906 239.25 C 202.769531 238.378906 195.359375 237.070312 193.617188 237.941406 C 191.875 238.816406 189.695312 241.867188 189.695312 242.738281 C 188.824219 242.738281 188.824219 242.304688 189.261719 239.6875 C 190.132812 237.507812 192.746094 230.53125 192.308594 227.042969 C 189.695312 227.042969 180.542969 232.710938 180.542969 232.710938 " fill-opacity="1" fill-rule="nonzero"/><path fill="#ec1c24" d="M 167.90625 211.347656 C 168.34375 211.785156 168.34375 213.09375 169.214844 213.527344 L 151.347656 212.21875 C 151.347656 212.21875 149.167969 210.910156 150.039062 210.476562 Z M 167.90625 211.347656 " fill-opacity="1" fill-rule="nonzero"/><path fill="#ec1c24" d="M 148.296875 209.605469 L 166.164062 209.605469 C 166.164062 209.605469 164.855469 207.425781 164.421875 206.117188 C 161.371094 206.117188 147.859375 206.550781 147.859375 206.550781 C 147.859375 206.550781 146.117188 206.550781 146.117188 210.039062 C 145.679688 210.910156 147.425781 212.21875 148.296875 209.605469 " fill-opacity="1" fill-rule="nonzero"/><path fill="#ec1c24" d="M 131.300781 212.65625 L 134.785156 212.65625 C 134.785156 212.65625 136.09375 212.21875 134.785156 210.910156 C 133.480469 209.605469 131.300781 208.730469 133.042969 206.117188 C 131.300781 205.679688 128.6875 205.246094 129.121094 210.910156 L 127.378906 210.910156 C 127.378906 210.910156 126.941406 207.859375 122.585938 207.859375 C 118.664062 207.859375 108.203125 212.21875 108.203125 212.21875 C 108.203125 212.21875 119.535156 215.273438 122.585938 215.273438 C 125.636719 215.273438 127.378906 212.65625 127.378906 212.65625 L 128.6875 212.65625 C 128.6875 212.65625 129.121094 214.835938 129.992188 215.707031 L 129.992188 219.195312 C 129.992188 219.195312 128.25 219.632812 128.6875 221.8125 C 129.121094 223.554688 130.429688 223.554688 130.429688 223.554688 C 130.863281 223.554688 131.300781 223.121094 132.609375 223.121094 C 133.480469 222.246094 133.042969 220.066406 131.300781 219.195312 L 131.300781 216.578125 C 131.300781 216.578125 132.609375 215.707031 132.609375 214.835938 C 132.609375 213.964844 131.300781 213.964844 131.300781 212.65625 " fill-opacity="1" fill-rule="nonzero"/><path fill="#ec1c24" d="M 152.652344 230.09375 C 153.960938 229.222656 154.398438 227.480469 154.398438 227.480469 L 154.398438 217.015625 C 154.398438 214.398438 150.039062 212.65625 149.605469 212.65625 L 149.167969 212.65625 C 148.730469 213.09375 147.425781 213.964844 146.554688 213.964844 C 145.246094 213.964844 144.808594 213.964844 143.503906 212.65625 C 140.015625 212.65625 138.273438 217.015625 137.835938 217.015625 C 137.835938 217.886719 137.402344 225.300781 137.835938 226.609375 C 138.273438 227.914062 139.144531 228.789062 139.582031 229.222656 C 138.710938 231.839844 135.222656 245.792969 140.015625 247.535156 L 140.015625 249.714844 L 152.21875 249.714844 L 152.21875 247.097656 C 156.574219 245.355469 153.527344 233.582031 152.652344 230.09375 M 139.144531 217.015625 C 139.582031 216.578125 140.886719 213.09375 143.503906 213.09375 C 144.808594 214.398438 145.679688 214.398438 146.988281 214.398438 C 148.296875 214.398438 149.167969 213.527344 150.039062 213.09375 C 151.347656 213.527344 153.960938 214.835938 153.960938 216.578125 L 153.960938 227.042969 C 153.960938 227.480469 153.527344 228.351562 152.652344 228.789062 L 150.476562 228.789062 L 150.476562 224.425781 L 142.195312 224.425781 L 142.195312 228.789062 L 140.453125 228.789062 C 140.015625 228.351562 139.144531 227.480469 139.144531 226.609375 C 138.710938 225.734375 138.710938 220.503906 139.144531 217.015625 M 147.425781 245.792969 L 145.246094 245.792969 C 144.808594 245.792969 144.375 245.355469 144.375 244.917969 C 144.375 244.484375 144.808594 244.046875 145.246094 244.046875 L 147.425781 244.046875 C 147.859375 244.046875 148.296875 244.484375 148.296875 244.917969 C 148.296875 245.355469 147.859375 245.792969 147.425781 245.792969 M 151.78125 246.664062 L 146.117188 240.125 L 140.886719 246.664062 C 137.402344 245.355469 139.582031 234.457031 140.886719 229.660156 L 152.21875 229.660156 C 153.089844 234.457031 155.269531 244.917969 151.78125 246.664062 " fill-opacity="1" fill-rule="nonzero"/><path fill="#ec1c24" d="M 150.039062 234.457031 C 151.347656 232.710938 149.605469 231.402344 149.605469 231.402344 L 142.632812 231.402344 C 140.453125 231.402344 141.324219 234.457031 141.324219 234.457031 L 145.679688 238.378906 C 145.679688 238.378906 148.730469 236.636719 150.039062 234.457031 " fill-opacity="1" fill-rule="nonzero"/><path fill="#ec1c24" d="M 147.425781 238.816406 L 151.78125 244.046875 C 151.78125 244.046875 151.347656 237.941406 151.347656 236.199219 C 150.039062 236.199219 147.425781 238.816406 147.425781 238.816406 " fill-opacity="1" fill-rule="nonzero"/><path fill="#ec1c24" d="M 140.886719 236.199219 C 140.886719 238.378906 140.453125 244.046875 140.453125 244.046875 L 144.808594 238.816406 C 144.808594 238.816406 142.195312 236.199219 140.886719 236.199219 " fill-opacity="1" fill-rule="nonzero"/><path fill="#ec1c24" d="M 149.167969 223.121094 L 150.039062 223.121094 L 150.039062 222.246094 C 150.039062 221.8125 149.605469 221.375 149.167969 221.375 L 142.632812 221.375 C 142.195312 221.375 141.757812 221.8125 141.757812 222.246094 L 141.757812 223.121094 Z M 149.167969 223.121094 " fill-opacity="1" fill-rule="nonzero"/><path fill="#ec1c24" d="M 139.582031 250.585938 L 138.710938 250.585938 L 138.710938 251.457031 C 138.710938 251.894531 139.144531 252.332031 139.582031 252.332031 L 152.21875 252.332031 C 152.652344 252.332031 153.089844 251.894531 153.089844 251.457031 L 153.089844 250.585938 Z M 139.582031 250.585938 " fill-opacity="1" fill-rule="nonzero"/></svg>