<svg xmlns="http://www.w3.org/2000/svg" xmlns:xlink="http://www.w3.org/1999/xlink" width="500" zoomAndPan="magnify" viewBox="0 0 375 374.999991" height="500" preserveAspectRatio="xMidYMid meet" version="1.0"><defs><clipPath id="4610243859"><path d="M 15 76.363281 L 357 76.363281 L 357 297 L 15 297 Z M 15 76.363281 " clip-rule="nonzero"/></clipPath></defs><path fill="#ffcc99" d="M 63.464844 143.257812 C 62.59375 142.910156 61.726562 143.433594 61.378906 144.125 C 61.207031 144.644531 61.378906 145.339844 61.902344 145.859375 C 67.457031 150.539062 73.707031 157.988281 71.796875 165.789062 C 70.582031 171.160156 65.894531 175.144531 60.683594 176.878906 C 55.476562 178.613281 49.402344 178.09375 45.234375 174.28125 C 38.289062 167.867188 39.679688 155.734375 41.589844 147.417969 C 43.84375 138.058594 50.09375 129.046875 59.296875 125.234375 C 63.808594 123.503906 68.671875 122.980469 73.359375 124.195312 C 75.269531 124.714844 77.179688 125.410156 78.914062 126.273438 C 81.519531 127.488281 83.949219 129.046875 86.207031 130.78125 C 86.898438 131.648438 87.421875 132.6875 87.941406 133.726562 C 91.761719 140.3125 93.671875 147.9375 94.363281 155.5625 L 94.363281 156.082031 L 93.84375 155.910156 C 84.296875 151.230469 73.878906 146.898438 63.464844 143.257812 Z M 70.058594 148.976562 C 78.394531 152.097656 86.554688 155.5625 94.710938 159.375 L 94.886719 159.375 L 94.886719 159.550781 C 94.886719 164.054688 94.363281 168.386719 93.496094 172.71875 C 90.199219 187.105469 81.867188 199.753906 69.539062 208.074219 C 68.152344 208.941406 66.933594 209.804688 65.546875 210.671875 C 56.519531 215.699219 47.144531 215.699219 39.160156 208.941406 C 33.601562 204.261719 29.957031 197.15625 27.699219 190.222656 C 25.097656 181.730469 24.226562 172.375 25.097656 163.363281 C 26.484375 150.015625 31.347656 137.191406 39.503906 126.449219 C 49.226562 113.449219 63.289062 104.613281 78.742188 99.414062 L 78.914062 99.414062 C 107.558594 115.355469 137.417969 128.355469 168.496094 138.578125 C 194.710938 147.246094 221.097656 153.828125 247.832031 160.242188 C 281.339844 168.214844 315.539062 176.359375 346.613281 191.609375 L 348.175781 192.476562 L 346.441406 192.128906 C 340.019531 191.089844 333.421875 190.570312 326.996094 191.089844 C 318.492188 191.78125 309.636719 194.210938 302.867188 199.234375 L 302.691406 199.234375 C 272.660156 192.304688 242.796875 184.15625 213.285156 174.800781 C 167.972656 160.414062 124.050781 142.738281 80.476562 123.503906 C 78.394531 122.460938 76.308594 121.769531 74.226562 121.25 C 68.84375 119.863281 63.464844 120.382812 58.253906 122.460938 C 48.1875 126.449219 41.242188 136.328125 38.636719 146.722656 C 36.378906 156.082031 35.339844 169.253906 43.152344 176.53125 C 48.1875 181.210938 55.304688 181.90625 61.726562 179.824219 C 67.976562 177.917969 73.359375 173.066406 74.921875 166.652344 C 76.308594 160.414062 73.707031 154.351562 69.714844 149.496094 L 69.191406 148.804688 Z M 305.125 293.683594 C 264.5 273.582031 221.964844 256.597656 178.5625 243.082031 C 140.71875 231.121094 101.832031 221.9375 62.59375 215.871094 L 61.726562 215.699219 L 62.59375 215.351562 C 63.984375 214.660156 65.546875 213.964844 66.933594 213.273438 C 68.324219 212.40625 69.886719 211.539062 71.277344 210.671875 C 84.296875 201.835938 93.148438 188.664062 96.449219 173.414062 C 99.574219 159.722656 98.011719 144.472656 91.066406 132.339844 L 90.371094 131.300781 L 91.066406 131.648438 C 130.824219 148.976562 171.097656 164.746094 212.417969 177.917969 C 257.730469 192.476562 303.5625 203.394531 350.261719 212.753906 C 358.421875 222.109375 360.503906 234.070312 357.898438 246.027344 C 356.511719 252.957031 353.558594 259.542969 349.914062 265.609375 C 346.269531 271.675781 341.582031 277.222656 336.371094 281.898438 C 328.386719 289.179688 316.40625 295.9375 305.125 293.683594 Z M 305.125 293.683594 " fill-opacity="1" fill-rule="evenodd"/><g clip-path="url(#4610243859)"><path fill="#531d1d" d="M 88.460938 159.375 C 86.554688 158.507812 76.484375 153.828125 63.808594 148.976562 C 68.84375 155.214844 70.058594 161.28125 69.019531 166.308594 C 67.628906 172.894531 62.074219 177.746094 55.652344 179.824219 C 49.402344 181.90625 41.9375 181.210938 36.902344 176.359375 C 31.691406 171.332031 28.742188 161.800781 32.386719 146.378906 C 34.816406 135.980469 41.9375 126.101562 52.003906 121.941406 C 56.867188 120.035156 62.246094 119.34375 68.152344 120.730469 C 70.234375 121.25 72.316406 121.941406 74.574219 122.980469 C 121.621094 143.953125 163.113281 160.070312 204.953125 173.585938 C 205.472656 167.175781 205.300781 161.109375 204.429688 155.910156 C 204.085938 154.003906 203.738281 152.269531 203.214844 150.539062 C 163.460938 140.140625 120.234375 125.929688 72.835938 99.414062 C 37.074219 111.542969 21.625 138.578125 19.195312 163.363281 C 18.324219 172.894531 19.195312 182.078125 21.796875 190.050781 C 24.226562 197.847656 28.222656 204.261719 33.082031 208.59375 C 40.027344 214.484375 49.054688 216.046875 59.121094 210.328125 C 60.511719 209.460938 61.902344 208.59375 63.117188 207.726562 C 76.136719 198.886719 83.949219 185.890625 86.898438 172.546875 C 87.941406 168.214844 88.460938 163.707031 88.460938 159.375 Z M 212.070312 175.839844 C 239.328125 184.332031 267.101562 191.957031 296.617188 198.714844 C 302.171875 194.730469 310.332031 191.4375 320.921875 190.570312 C 326.652344 190.050781 333.074219 190.398438 340.367188 191.609375 C 310.332031 176.878906 277.519531 168.90625 241.757812 160.414062 C 231.863281 157.988281 221.617188 155.5625 211.203125 152.789062 C 211.375 153.484375 211.375 154.175781 211.550781 155.042969 C 212.765625 161.109375 212.765625 168.214844 212.070312 175.839844 Z M 179.085938 139.964844 C 179.085938 139.792969 179.257812 139.621094 179.433594 139.445312 C 177.175781 137.886719 174.917969 135.804688 173.183594 133.035156 C 169.363281 127.488281 166.585938 119.6875 165.890625 110.851562 C 165.195312 102.1875 166.757812 94.039062 169.710938 87.976562 C 172.835938 81.734375 177.523438 77.578125 183.25 76.882812 L 183.773438 76.882812 C 189.675781 76.363281 195.230469 79.828125 199.398438 85.894531 C 203.214844 91.441406 205.992188 99.238281 206.6875 107.90625 C 206.6875 109.117188 206.863281 110.332031 206.863281 111.542969 L 207.210938 111.199219 L 207.210938 111.023438 C 212.070312 105.652344 217.800781 101.839844 223.179688 100.105469 C 228.738281 98.375 233.945312 98.71875 237.765625 101.664062 L 238.285156 102.1875 C 242.105469 105.480469 243.144531 110.851562 242.105469 116.917969 C 241.0625 122.460938 237.9375 128.527344 233.078125 133.898438 C 228.214844 139.273438 222.488281 143.257812 217.105469 144.816406 C 214.5 145.683594 211.898438 146.03125 209.464844 145.859375 C 209.8125 146.722656 210.160156 147.589844 210.335938 148.457031 C 221.445312 151.230469 232.207031 153.828125 242.796875 156.429688 C 283.941406 166.308594 321.09375 175.320312 354.949219 194.902344 C 355.816406 195.421875 356.164062 196.460938 355.644531 197.328125 C 355.121094 198.195312 354.253906 198.367188 353.386719 198.195312 C 340.886719 194.210938 330.121094 193.167969 321.269531 193.863281 C 312.9375 194.554688 306.339844 196.636719 301.476562 199.582031 C 315.539062 202.699219 330.121094 205.820312 345.226562 208.765625 C 345.746094 208.765625 346.09375 209.113281 346.269531 209.285156 C 355.816406 219.859375 357.898438 233.027344 355.121094 245.851562 C 353.734375 252.957031 350.609375 260.0625 346.789062 266.476562 C 342.796875 272.886719 337.933594 278.78125 332.554688 283.632812 C 321.964844 292.992188 309.289062 298.363281 298.179688 296.109375 C 298.003906 296.109375 297.832031 296.109375 297.660156 295.9375 C 262.417969 278.609375 223.703125 262.492188 182.90625 249.144531 C 180.125 251.917969 177.347656 254 174.570312 255.039062 C 170.230469 256.769531 166.066406 256.425781 162.070312 253.304688 C 159.121094 251.050781 156.34375 247.238281 154.085938 241.695312 C 153.914062 241.175781 153.738281 240.480469 153.738281 239.960938 C 118.671875 229.734375 82.210938 221.765625 45.0625 216.738281 C 39.679688 216.390625 34.816406 214.140625 30.824219 210.5 C 25.269531 205.820312 20.929688 198.714844 18.324219 190.398438 C 15.722656 181.90625 14.679688 172.375 15.722656 162.320312 C 18.152344 136.671875 34.472656 108.078125 72.492188 95.773438 C 73.011719 95.601562 73.53125 95.773438 73.878906 95.945312 C 111.550781 116.917969 146.445312 130.261719 179.085938 139.964844 Z M 211.722656 179.652344 C 210.855469 187.277344 209.117188 195.421875 206.515625 203.394531 C 201.132812 220.550781 193.496094 237.015625 185.683594 246.71875 C 225.957031 260.0625 264.324219 276.007812 299.21875 293.164062 C 309.117188 295.070312 320.574219 290.046875 330.296875 281.378906 C 335.503906 276.875 340.191406 271.15625 343.835938 265.089844 C 347.65625 258.851562 350.433594 252.265625 351.824219 245.507812 C 354.253906 233.894531 352.519531 221.9375 344.183594 212.40625 C 298.875 203.566406 255.644531 193.34375 211.722656 179.652344 Z M 162.59375 243.253906 C 163.980469 245.507812 165.195312 247.238281 166.585938 248.105469 C 168.320312 249.492188 170.230469 249.492188 172.140625 248.800781 C 173.007812 248.453125 174.050781 247.757812 175.265625 247.066406 C 174.050781 246.71875 173.007812 246.375 171.792969 246.027344 C 168.667969 245.160156 165.542969 244.121094 162.59375 243.253906 Z M 178.21875 244.292969 C 178.738281 243.773438 179.433594 243.082031 179.953125 242.386719 C 187.417969 233.375 194.535156 217.777344 199.570312 201.316406 C 202.175781 193.34375 203.738281 185.199219 204.605469 177.574219 C 165.71875 165.09375 127.523438 150.363281 84.816406 131.648438 L 84.992188 132.167969 C 91.761719 144.125 93.671875 159.027344 90.546875 173.585938 C 87.421875 187.96875 78.914062 201.660156 65.199219 211.019531 C 63.808594 211.886719 62.421875 212.753906 60.859375 213.617188 C 59.46875 214.484375 58.082031 215.179688 56.519531 215.699219 C 96.273438 221.765625 135.335938 231.121094 172.660156 242.734375 C 174.570312 243.082031 176.308594 243.773438 178.21875 244.292969 Z M 201.480469 146.378906 C 201.132812 145.683594 200.613281 144.992188 200.265625 144.472656 C 198.527344 142.21875 196.445312 141.003906 193.839844 141.003906 C 193.496094 141.003906 193.148438 141.003906 192.800781 141.003906 C 191.757812 141.527344 190.542969 141.699219 189.328125 141.871094 C 188.808594 142.046875 188.460938 142.21875 187.9375 142.390625 C 192.625 143.953125 197.140625 145.339844 201.480469 146.378906 Z M 205.300781 123.503906 C 204.777344 125.582031 204.085938 127.488281 203.390625 129.222656 C 202.523438 133.378906 203.214844 136.847656 205.472656 138.753906 C 207.730469 140.660156 211.203125 141.003906 215.367188 139.617188 C 219.882812 138.234375 224.742188 134.941406 228.910156 130.261719 C 233.078125 125.582031 235.679688 120.382812 236.546875 115.703125 C 237.417969 111.71875 236.722656 108.078125 234.640625 106.171875 C 232.382812 104.09375 228.910156 103.917969 224.742188 105.304688 C 220.230469 106.691406 215.367188 109.984375 211.203125 114.664062 C 208.773438 117.609375 206.6875 120.554688 205.300781 123.503906 Z M 198.183594 127.835938 C 198.703125 125.929688 199.222656 123.847656 200.089844 121.769531 C 200.960938 117.78125 201.480469 113.277344 200.960938 108.425781 C 200.4375 100.800781 198.007812 93.867188 194.710938 89.015625 C 191.585938 84.683594 187.9375 82.082031 183.945312 82.257812 C 180.125 82.601562 176.828125 85.722656 174.398438 90.402344 C 171.792969 95.601562 170.578125 102.707031 171.097656 110.503906 C 171.621094 118.304688 174.050781 125.0625 177.347656 129.914062 C 179.433594 132.859375 181.863281 135.113281 184.46875 135.980469 C 187.765625 134.421875 190.714844 133.726562 193.496094 133.726562 L 193.839844 133.726562 C 195.230469 132.339844 196.445312 130.609375 197.488281 128.355469 C 198.007812 128.355469 198.007812 128.007812 198.183594 127.835938 Z M 57.558594 142.738281 C 71.449219 147.589844 83.601562 153.136719 88.460938 155.214844 C 87.941406 147.417969 85.683594 139.964844 82.039062 133.554688 C 81.519531 132.6875 80.996094 131.648438 80.304688 130.78125 C 77.871094 128.875 75.441406 127.316406 73.011719 126.273438 C 71.277344 125.410156 69.539062 124.714844 67.457031 124.195312 C 62.421875 122.980469 57.734375 123.503906 53.566406 125.234375 C 44.539062 128.875 38.289062 137.886719 36.035156 147.246094 C 32.734375 161.109375 35.164062 169.601562 39.679688 173.757812 C 43.671875 177.574219 49.574219 178.09375 54.957031 176.359375 C 60.164062 174.625 64.679688 170.8125 65.894531 165.613281 C 67.109375 160.242188 64.679688 153.308594 55.996094 146.03125 C 55.476562 145.511719 55.128906 144.644531 55.476562 143.953125 C 55.476562 142.910156 56.519531 142.566406 57.558594 142.738281 Z M 57.558594 142.738281 " fill-opacity="1" fill-rule="nonzero"/></g></svg>